<mxfile host="app.diagrams.net" modified="2023-04-17T14:41:58.137Z" agent="Mozilla/5.0 (Windows NT 10.0; Win64; x64) AppleWebKit/537.36 (KHTML, like Gecko) Chrome/111.0.0.0 Safari/537.36" etag="k1faaYnQtIoWaxQu0cWD" version="21.1.8" type="device">
  <diagram name="Page-1" id="EJTTKh23NrdQ_9UJX_yA">
    <mxGraphModel dx="1577" dy="1243" grid="1" gridSize="10" guides="1" tooltips="1" connect="1" arrows="1" fold="1" page="1" pageScale="1" pageWidth="827" pageHeight="1169" math="0" shadow="0">
      <root>
        <mxCell id="0" />
        <mxCell id="1" parent="0" />
        <mxCell id="DnbsGsu2dzEBmbPehKn7-1" value="" style="rounded=0;whiteSpace=wrap;html=1;" vertex="1" parent="1">
          <mxGeometry x="40" y="40" width="1240" height="1270" as="geometry" />
        </mxCell>
        <mxCell id="DnbsGsu2dzEBmbPehKn7-49" value="Navbar" style="html=1;shadow=0;dashed=0;fillColor=#F8F9FA;strokeColor=none;fontSize=16;fontColor=#181819;align=left;spacing=15;" vertex="1" parent="1">
          <mxGeometry x="200" y="80" width="920" height="100" as="geometry" />
        </mxCell>
        <mxCell id="DnbsGsu2dzEBmbPehKn7-50" value="Games" style="fillColor=none;strokeColor=none;fontSize=14;fontColor=#181819;align=center;" vertex="1" parent="DnbsGsu2dzEBmbPehKn7-49">
          <mxGeometry width="70" height="40" relative="1" as="geometry">
            <mxPoint x="80" y="30" as="offset" />
          </mxGeometry>
        </mxCell>
        <mxCell id="DnbsGsu2dzEBmbPehKn7-52" value="Contact" style="fillColor=none;strokeColor=none;fontSize=14;fontColor=#7C7C7D;align=right;spacingRight=20;" vertex="1" parent="DnbsGsu2dzEBmbPehKn7-49">
          <mxGeometry width="100" height="40" relative="1" as="geometry">
            <mxPoint x="130" y="30" as="offset" />
          </mxGeometry>
        </mxCell>
        <mxCell id="DnbsGsu2dzEBmbPehKn7-53" value="" style="shape=triangle;direction=south;fillColor=#7C7C7D;strokeColor=none;perimeter=none;" vertex="1" parent="DnbsGsu2dzEBmbPehKn7-52">
          <mxGeometry x="1" y="0.5" width="10" height="5" relative="1" as="geometry">
            <mxPoint x="-17" y="-2.5" as="offset" />
          </mxGeometry>
        </mxCell>
        <mxCell id="DnbsGsu2dzEBmbPehKn7-54" value="Admin" style="fillColor=none;strokeColor=none;fontSize=14;fontColor=#ADAEAF;align=center;" vertex="1" parent="DnbsGsu2dzEBmbPehKn7-49">
          <mxGeometry width="80" height="40" relative="1" as="geometry">
            <mxPoint x="220" y="30" as="offset" />
          </mxGeometry>
        </mxCell>
        <mxCell id="DnbsGsu2dzEBmbPehKn7-55" value="Search" style="html=1;shadow=0;dashed=0;shape=mxgraph.bootstrap.rrect;rSize=5;fontSize=14;fontColor=#33A64C;strokeColor=#33A64C;fillColor=none;" vertex="1" parent="DnbsGsu2dzEBmbPehKn7-49">
          <mxGeometry x="1" width="70" height="40" relative="1" as="geometry">
            <mxPoint x="-80" y="30" as="offset" />
          </mxGeometry>
        </mxCell>
        <mxCell id="DnbsGsu2dzEBmbPehKn7-56" value="Search" style="html=1;shadow=0;dashed=0;shape=mxgraph.bootstrap.rrect;rSize=5;fontSize=14;fontColor=#6C767D;strokeColor=#CED4DA;fillColor=#ffffff;align=left;spacing=10;" vertex="1" parent="DnbsGsu2dzEBmbPehKn7-49">
          <mxGeometry x="1" width="180" height="40" relative="1" as="geometry">
            <mxPoint x="-270" y="30" as="offset" />
          </mxGeometry>
        </mxCell>
        <mxCell id="DnbsGsu2dzEBmbPehKn7-79" value="" style="html=1;shadow=0;dashed=0;shape=mxgraph.bootstrap.rrect;rSize=5;strokeColor=#DFDFDF;html=1;whiteSpace=wrap;fillColor=#ffffff;fontColor=#000000;verticalAlign=bottom;align=left;spacing=20;spacingBottom=50;fontSize=14;" vertex="1" parent="1">
          <mxGeometry x="200" y="960" width="210" height="280" as="geometry" />
        </mxCell>
        <mxCell id="DnbsGsu2dzEBmbPehKn7-80" value="Image cap" style="html=1;shadow=0;dashed=0;shape=mxgraph.bootstrap.topButton;rSize=5;perimeter=none;whiteSpace=wrap;fillColor=#868E96;strokeColor=#DFDFDF;fontColor=#DEE2E6;resizeWidth=1;fontSize=18;" vertex="1" parent="DnbsGsu2dzEBmbPehKn7-79">
          <mxGeometry width="209.99999999999991" height="180" relative="1" as="geometry" />
        </mxCell>
        <mxCell id="DnbsGsu2dzEBmbPehKn7-81" value="Go somewhere" style="html=1;shadow=0;dashed=0;shape=mxgraph.bootstrap.rrect;rSize=5;perimeter=none;whiteSpace=wrap;fillColor=#0085FC;strokeColor=none;fontColor=#ffffff;resizeWidth=1;fontSize=14;" vertex="1" parent="DnbsGsu2dzEBmbPehKn7-79">
          <mxGeometry y="1" width="100.8" height="40" relative="1" as="geometry">
            <mxPoint x="20" y="-60" as="offset" />
          </mxGeometry>
        </mxCell>
        <mxCell id="DnbsGsu2dzEBmbPehKn7-91" value="&lt;b&gt;&lt;font style=&quot;font-size: 20px&quot;&gt;Card title&lt;/font&gt;&lt;/b&gt;&lt;br style=&quot;font-size: 14px&quot;&gt;&lt;br style=&quot;font-size: 14px&quot;&gt;Some quick example text to build on the card title and make up the bulk of the card&#39;s content." style="html=1;shadow=0;dashed=0;shape=mxgraph.bootstrap.rrect;rSize=5;strokeColor=#DFDFDF;html=1;whiteSpace=wrap;fillColor=#ffffff;fontColor=#000000;verticalAlign=bottom;align=left;spacing=20;spacingBottom=50;fontSize=14;" vertex="1" parent="1">
          <mxGeometry x="200" y="250" width="910" height="280" as="geometry" />
        </mxCell>
        <mxCell id="DnbsGsu2dzEBmbPehKn7-92" value="Image cap" style="html=1;shadow=0;dashed=0;shape=mxgraph.bootstrap.topButton;rSize=5;perimeter=none;whiteSpace=wrap;fillColor=#868E96;strokeColor=#DFDFDF;fontColor=#DEE2E6;resizeWidth=1;fontSize=18;" vertex="1" parent="DnbsGsu2dzEBmbPehKn7-91">
          <mxGeometry width="910" height="180" relative="1" as="geometry" />
        </mxCell>
        <mxCell id="DnbsGsu2dzEBmbPehKn7-93" value="Go somewhere" style="html=1;shadow=0;dashed=0;shape=mxgraph.bootstrap.rrect;rSize=5;perimeter=none;whiteSpace=wrap;fillColor=#0085FC;strokeColor=none;fontColor=#ffffff;resizeWidth=1;fontSize=14;" vertex="1" parent="DnbsGsu2dzEBmbPehKn7-91">
          <mxGeometry y="1" width="436.8" height="40" relative="1" as="geometry">
            <mxPoint x="20" y="-60" as="offset" />
          </mxGeometry>
        </mxCell>
        <mxCell id="DnbsGsu2dzEBmbPehKn7-94" value="Deals" style="html=1;shadow=0;dashed=0;shape=mxgraph.bootstrap.rrect;rSize=5;strokeColor=#343A40;strokeWidth=1;fillColor=none;fontColor=#343A40;whiteSpace=wrap;align=center;verticalAlign=middle;spacingLeft=0;fontStyle=0;fontSize=16;spacing=5;" vertex="1" parent="1">
          <mxGeometry x="200" y="200" width="140" height="40" as="geometry" />
        </mxCell>
        <mxCell id="DnbsGsu2dzEBmbPehKn7-95" value="Games for sale" style="html=1;shadow=0;dashed=0;shape=mxgraph.bootstrap.rrect;rSize=5;strokeColor=#343A40;strokeWidth=1;fillColor=none;fontColor=#343A40;whiteSpace=wrap;align=center;verticalAlign=middle;spacingLeft=0;fontStyle=0;fontSize=16;spacing=5;" vertex="1" parent="1">
          <mxGeometry x="200" y="545" width="140" height="40" as="geometry" />
        </mxCell>
        <mxCell id="DnbsGsu2dzEBmbPehKn7-96" value="" style="html=1;shadow=0;dashed=0;shape=mxgraph.bootstrap.rrect;rSize=5;strokeColor=#DFDFDF;html=1;whiteSpace=wrap;fillColor=#ffffff;fontColor=#000000;verticalAlign=bottom;align=left;spacing=20;spacingBottom=50;fontSize=14;" vertex="1" parent="1">
          <mxGeometry x="440" y="960" width="210" height="280" as="geometry" />
        </mxCell>
        <mxCell id="DnbsGsu2dzEBmbPehKn7-97" value="Image cap" style="html=1;shadow=0;dashed=0;shape=mxgraph.bootstrap.topButton;rSize=5;perimeter=none;whiteSpace=wrap;fillColor=#868E96;strokeColor=#DFDFDF;fontColor=#DEE2E6;resizeWidth=1;fontSize=18;" vertex="1" parent="DnbsGsu2dzEBmbPehKn7-96">
          <mxGeometry width="209.99999999999991" height="180" relative="1" as="geometry" />
        </mxCell>
        <mxCell id="DnbsGsu2dzEBmbPehKn7-98" value="Go somewhere" style="html=1;shadow=0;dashed=0;shape=mxgraph.bootstrap.rrect;rSize=5;perimeter=none;whiteSpace=wrap;fillColor=#0085FC;strokeColor=none;fontColor=#ffffff;resizeWidth=1;fontSize=14;" vertex="1" parent="DnbsGsu2dzEBmbPehKn7-96">
          <mxGeometry y="1" width="100.8" height="40" relative="1" as="geometry">
            <mxPoint x="20" y="-60" as="offset" />
          </mxGeometry>
        </mxCell>
        <mxCell id="DnbsGsu2dzEBmbPehKn7-99" value="" style="html=1;shadow=0;dashed=0;shape=mxgraph.bootstrap.rrect;rSize=5;strokeColor=#DFDFDF;html=1;whiteSpace=wrap;fillColor=#ffffff;fontColor=#000000;verticalAlign=bottom;align=left;spacing=20;spacingBottom=50;fontSize=14;" vertex="1" parent="1">
          <mxGeometry x="680" y="960" width="210" height="280" as="geometry" />
        </mxCell>
        <mxCell id="DnbsGsu2dzEBmbPehKn7-100" value="Image cap" style="html=1;shadow=0;dashed=0;shape=mxgraph.bootstrap.topButton;rSize=5;perimeter=none;whiteSpace=wrap;fillColor=#868E96;strokeColor=#DFDFDF;fontColor=#DEE2E6;resizeWidth=1;fontSize=18;" vertex="1" parent="DnbsGsu2dzEBmbPehKn7-99">
          <mxGeometry width="209.99999999999991" height="180" relative="1" as="geometry" />
        </mxCell>
        <mxCell id="DnbsGsu2dzEBmbPehKn7-101" value="Go somewhere" style="html=1;shadow=0;dashed=0;shape=mxgraph.bootstrap.rrect;rSize=5;perimeter=none;whiteSpace=wrap;fillColor=#0085FC;strokeColor=none;fontColor=#ffffff;resizeWidth=1;fontSize=14;" vertex="1" parent="DnbsGsu2dzEBmbPehKn7-99">
          <mxGeometry y="1" width="100.8" height="40" relative="1" as="geometry">
            <mxPoint x="20" y="-60" as="offset" />
          </mxGeometry>
        </mxCell>
        <mxCell id="DnbsGsu2dzEBmbPehKn7-102" value="" style="html=1;shadow=0;dashed=0;shape=mxgraph.bootstrap.rrect;rSize=5;strokeColor=#DFDFDF;html=1;whiteSpace=wrap;fillColor=#ffffff;fontColor=#000000;verticalAlign=bottom;align=left;spacing=20;spacingBottom=50;fontSize=14;" vertex="1" parent="1">
          <mxGeometry x="910" y="960" width="210" height="280" as="geometry" />
        </mxCell>
        <mxCell id="DnbsGsu2dzEBmbPehKn7-103" value="Image cap" style="html=1;shadow=0;dashed=0;shape=mxgraph.bootstrap.topButton;rSize=5;perimeter=none;whiteSpace=wrap;fillColor=#868E96;strokeColor=#DFDFDF;fontColor=#DEE2E6;resizeWidth=1;fontSize=18;" vertex="1" parent="DnbsGsu2dzEBmbPehKn7-102">
          <mxGeometry width="209.99999999999991" height="180" relative="1" as="geometry" />
        </mxCell>
        <mxCell id="DnbsGsu2dzEBmbPehKn7-104" value="Go somewhere" style="html=1;shadow=0;dashed=0;shape=mxgraph.bootstrap.rrect;rSize=5;perimeter=none;whiteSpace=wrap;fillColor=#0085FC;strokeColor=none;fontColor=#ffffff;resizeWidth=1;fontSize=14;" vertex="1" parent="DnbsGsu2dzEBmbPehKn7-102">
          <mxGeometry y="1" width="100.8" height="40" relative="1" as="geometry">
            <mxPoint x="20" y="-60" as="offset" />
          </mxGeometry>
        </mxCell>
        <mxCell id="DnbsGsu2dzEBmbPehKn7-105" value="" style="html=1;shadow=0;dashed=0;shape=mxgraph.bootstrap.rrect;rSize=5;strokeColor=#DFDFDF;html=1;whiteSpace=wrap;fillColor=#ffffff;fontColor=#000000;verticalAlign=bottom;align=left;spacing=20;spacingBottom=50;fontSize=14;" vertex="1" parent="1">
          <mxGeometry x="200" y="650" width="210" height="280" as="geometry" />
        </mxCell>
        <mxCell id="DnbsGsu2dzEBmbPehKn7-106" value="Image cap" style="html=1;shadow=0;dashed=0;shape=mxgraph.bootstrap.topButton;rSize=5;perimeter=none;whiteSpace=wrap;fillColor=#868E96;strokeColor=#DFDFDF;fontColor=#DEE2E6;resizeWidth=1;fontSize=18;" vertex="1" parent="DnbsGsu2dzEBmbPehKn7-105">
          <mxGeometry width="209.99999999999991" height="180" relative="1" as="geometry" />
        </mxCell>
        <mxCell id="DnbsGsu2dzEBmbPehKn7-107" value="Go somewhere" style="html=1;shadow=0;dashed=0;shape=mxgraph.bootstrap.rrect;rSize=5;perimeter=none;whiteSpace=wrap;fillColor=#0085FC;strokeColor=none;fontColor=#ffffff;resizeWidth=1;fontSize=14;" vertex="1" parent="DnbsGsu2dzEBmbPehKn7-105">
          <mxGeometry y="1" width="100.8" height="40" relative="1" as="geometry">
            <mxPoint x="20" y="-60" as="offset" />
          </mxGeometry>
        </mxCell>
        <mxCell id="DnbsGsu2dzEBmbPehKn7-108" value="" style="html=1;shadow=0;dashed=0;shape=mxgraph.bootstrap.rrect;rSize=5;strokeColor=#DFDFDF;html=1;whiteSpace=wrap;fillColor=#ffffff;fontColor=#000000;verticalAlign=bottom;align=left;spacing=20;spacingBottom=50;fontSize=14;" vertex="1" parent="1">
          <mxGeometry x="440" y="650" width="210" height="280" as="geometry" />
        </mxCell>
        <mxCell id="DnbsGsu2dzEBmbPehKn7-109" value="Image cap" style="html=1;shadow=0;dashed=0;shape=mxgraph.bootstrap.topButton;rSize=5;perimeter=none;whiteSpace=wrap;fillColor=#868E96;strokeColor=#DFDFDF;fontColor=#DEE2E6;resizeWidth=1;fontSize=18;" vertex="1" parent="DnbsGsu2dzEBmbPehKn7-108">
          <mxGeometry width="209.99999999999991" height="180" relative="1" as="geometry" />
        </mxCell>
        <mxCell id="DnbsGsu2dzEBmbPehKn7-110" value="Go somewhere" style="html=1;shadow=0;dashed=0;shape=mxgraph.bootstrap.rrect;rSize=5;perimeter=none;whiteSpace=wrap;fillColor=#0085FC;strokeColor=none;fontColor=#ffffff;resizeWidth=1;fontSize=14;" vertex="1" parent="DnbsGsu2dzEBmbPehKn7-108">
          <mxGeometry y="1" width="100.8" height="40" relative="1" as="geometry">
            <mxPoint x="20" y="-60" as="offset" />
          </mxGeometry>
        </mxCell>
        <mxCell id="DnbsGsu2dzEBmbPehKn7-111" value="" style="html=1;shadow=0;dashed=0;shape=mxgraph.bootstrap.rrect;rSize=5;strokeColor=#DFDFDF;html=1;whiteSpace=wrap;fillColor=#ffffff;fontColor=#000000;verticalAlign=bottom;align=left;spacing=20;spacingBottom=50;fontSize=14;" vertex="1" parent="1">
          <mxGeometry x="680" y="650" width="210" height="280" as="geometry" />
        </mxCell>
        <mxCell id="DnbsGsu2dzEBmbPehKn7-112" value="Image cap" style="html=1;shadow=0;dashed=0;shape=mxgraph.bootstrap.topButton;rSize=5;perimeter=none;whiteSpace=wrap;fillColor=#868E96;strokeColor=#DFDFDF;fontColor=#DEE2E6;resizeWidth=1;fontSize=18;" vertex="1" parent="DnbsGsu2dzEBmbPehKn7-111">
          <mxGeometry width="209.99999999999991" height="180" relative="1" as="geometry" />
        </mxCell>
        <mxCell id="DnbsGsu2dzEBmbPehKn7-113" value="Go somewhere" style="html=1;shadow=0;dashed=0;shape=mxgraph.bootstrap.rrect;rSize=5;perimeter=none;whiteSpace=wrap;fillColor=#0085FC;strokeColor=none;fontColor=#ffffff;resizeWidth=1;fontSize=14;" vertex="1" parent="DnbsGsu2dzEBmbPehKn7-111">
          <mxGeometry y="1" width="100.8" height="40" relative="1" as="geometry">
            <mxPoint x="20" y="-60" as="offset" />
          </mxGeometry>
        </mxCell>
        <mxCell id="DnbsGsu2dzEBmbPehKn7-114" value="" style="html=1;shadow=0;dashed=0;shape=mxgraph.bootstrap.rrect;rSize=5;strokeColor=#DFDFDF;html=1;whiteSpace=wrap;fillColor=#ffffff;fontColor=#000000;verticalAlign=bottom;align=left;spacing=20;spacingBottom=50;fontSize=14;" vertex="1" parent="1">
          <mxGeometry x="910" y="650" width="210" height="280" as="geometry" />
        </mxCell>
        <mxCell id="DnbsGsu2dzEBmbPehKn7-115" value="Image cap" style="html=1;shadow=0;dashed=0;shape=mxgraph.bootstrap.topButton;rSize=5;perimeter=none;whiteSpace=wrap;fillColor=#868E96;strokeColor=#DFDFDF;fontColor=#DEE2E6;resizeWidth=1;fontSize=18;" vertex="1" parent="DnbsGsu2dzEBmbPehKn7-114">
          <mxGeometry width="209.99999999999991" height="180" relative="1" as="geometry" />
        </mxCell>
        <mxCell id="DnbsGsu2dzEBmbPehKn7-116" value="Go somewhere" style="html=1;shadow=0;dashed=0;shape=mxgraph.bootstrap.rrect;rSize=5;perimeter=none;whiteSpace=wrap;fillColor=#0085FC;strokeColor=none;fontColor=#ffffff;resizeWidth=1;fontSize=14;" vertex="1" parent="DnbsGsu2dzEBmbPehKn7-114">
          <mxGeometry y="1" width="100.8" height="40" relative="1" as="geometry">
            <mxPoint x="20" y="-60" as="offset" />
          </mxGeometry>
        </mxCell>
        <mxCell id="DnbsGsu2dzEBmbPehKn7-117" value="Active" style="html=1;shadow=0;dashed=0;shape=mxgraph.bootstrap.rrect;rSize=5;fillColor=#0085FC;strokeColor=none;fontSize=14;fontColor=#ffffff;sketch=0;" vertex="1" parent="1">
          <mxGeometry x="500" y="570" width="70" height="40" as="geometry" />
        </mxCell>
        <mxCell id="DnbsGsu2dzEBmbPehKn7-118" value="Dropdown" style="strokeColor=none;fillColor=none;rSize=5;perimeter=none;whiteSpace=wrap;resizeWidth=1;align=center;spacing=20;fontSize=14;fontColor=#0085FC;spacingRight=10;" vertex="1" parent="1">
          <mxGeometry x="580" y="570" width="100" height="40" as="geometry" />
        </mxCell>
        <mxCell id="DnbsGsu2dzEBmbPehKn7-119" value="" style="shape=triangle;direction=south;fillColor=#0085FC;strokeColor=none;perimeter=none;sketch=0;" vertex="1" parent="DnbsGsu2dzEBmbPehKn7-118">
          <mxGeometry x="1" y="0.5" width="10" height="5" relative="1" as="geometry">
            <mxPoint x="-17" y="-2.5" as="offset" />
          </mxGeometry>
        </mxCell>
        <mxCell id="DnbsGsu2dzEBmbPehKn7-120" value="Link" style="fillColor=none;strokeColor=none;fontSize=14;fontColor=#0085FC;" vertex="1" parent="1">
          <mxGeometry x="680" y="570" width="60" height="40" as="geometry" />
        </mxCell>
        <mxCell id="DnbsGsu2dzEBmbPehKn7-121" value="Disabled" style="fillColor=none;strokeColor=none;fontSize=14;fontColor=#7D868C;" vertex="1" parent="1">
          <mxGeometry x="740" y="570" width="80" height="40" as="geometry" />
        </mxCell>
      </root>
    </mxGraphModel>
  </diagram>
</mxfile>
